<svg xmlns="http://www.w3.org/2000/svg" width="332" height="408" fill="none" viewBox="0 0 332 408"><g filter="url(#filter0_f_5_215)" opacity=".572"><path fill="url(#paint0_linear_5_215)" fill-rule="evenodd" d="M242.679 317.3L243.146 317.661L302 272.156V151.479V150.677V30L166 135.152L30 30L30 150.677V151.479L30 272.156L87.714 316.78L87.4845 316.96L165.309 378L242.679 317.3Z" clip-rule="evenodd"/></g><path fill="url(#paint1_linear_5_215)" d="M245.5 189L303 142V21L166.5 126"/><path fill="url(#paint2_linear_5_215)" d="M90 187L32 141.5V21L166.5 126"/><path fill="#3BBEED" d="M166.5 247L90 187L166.5 126L244 187.5L166.5 247Z"/><path fill="url(#paint3_linear_5_215)" d="M166.5 247L90 187L166.5 126L244 187.5L166.5 247Z"/><path fill="url(#paint4_linear_5_215)" d="M243.5 309L302.5 263.307L303 142L243 187.5L166 247"/><path fill="#61D8FD" d="M90 309L32 263.307V141.5L166.5 247"/><path fill="url(#paint5_linear_5_215)" d="M90 309L32 263.307V141.5L166.5 247"/><path fill="url(#paint6_linear_5_215)" d="M166.077 369.954L90 309L166.5 247L244 309L166.077 369.954Z"/><defs><filter id="filter0_f_5_215" width="331.802" height="407.802" x=".099" y=".099" color-interpolation-filters="sRGB" filterUnits="userSpaceOnUse"><feFlood flood-opacity="0" result="BackgroundImageFix"/><feBlend in="SourceGraphic" in2="BackgroundImageFix" mode="normal" result="shape"/><feGaussianBlur result="effect1_foregroundBlur_5_215" stdDeviation="14.951"/></filter><linearGradient id="paint0_linear_5_215" x1="70.647" x2="70.647" y1="134.009" y2="378" gradientUnits="userSpaceOnUse"><stop stop-color="#fff" stop-opacity=".01"/><stop offset="1"/></linearGradient><linearGradient id="paint1_linear_5_215" x1="166.103" x2="166.103" y1="21" y2="187.747" gradientUnits="userSpaceOnUse"><stop stop-color="#0F63AD"/><stop offset="1" stop-color="#02539A"/></linearGradient><linearGradient id="paint2_linear_5_215" x1="168.897" x2="168.897" y1="21" y2="187.747" gradientUnits="userSpaceOnUse"><stop stop-color="#C2F0FF"/><stop offset="1" stop-color="#61D8FD"/></linearGradient><linearGradient id="paint3_linear_5_215" x1="89.273" x2="89.273" y1="126.092" y2="248" gradientUnits="userSpaceOnUse"><stop stop-color="#61D8FD"/><stop offset="1" stop-color="#3BBEED"/></linearGradient><linearGradient id="paint4_linear_5_215" x1="165.096" x2="165.096" y1="142.996" y2="309" gradientUnits="userSpaceOnUse"><stop stop-color="#0F63AD"/><stop offset="1" stop-color="#02539A"/></linearGradient><linearGradient id="paint5_linear_5_215" x1="168.897" x2="168.897" y1="142" y2="308.747" gradientUnits="userSpaceOnUse"><stop stop-color="#C2F0FF"/><stop offset="1" stop-color="#61D8FD"/></linearGradient><linearGradient id="paint6_linear_5_215" x1="89.273" x2="89.273" y1="247.093" y2="369" gradientUnits="userSpaceOnUse"><stop stop-color="#61D8FD"/><stop offset="1" stop-color="#3BBEED"/></linearGradient></defs></svg>